<svg xmlns="http://www.w3.org/2000/svg" viewBox="0 0 20 20">
  <defs>
    <style>
      .cls-1 {
        fill: #22a460;
      }
    </style>
  </defs>
  <path id="clock-regular" class="cls-1" d="M18,8A10,10,0,1,0,28,18,10,10,0,0,0,18,8Zm0,18.065A8.065,8.065,0,1,1,26.065,18,8.062,8.062,0,0,1,18,26.065Zm2.492-4.21-3.423-2.488a.487.487,0,0,1-.2-.391V12.355a.485.485,0,0,1,.484-.484h1.29a.485.485,0,0,1,.484.484v5.714l2.694,1.96a.484.484,0,0,1,.1.677l-.758,1.044A.487.487,0,0,1,20.492,21.855Z" transform="translate(-8 -8)"/>
</svg>
