<svg xmlns="http://www.w3.org/2000/svg" viewBox="0 0 23.828 19">
  <defs>
    <style>
      .cls-1 {
        fill: #22a460;
      }
    </style>
  </defs>
  <path id="cogs-solid" class="cls-1" d="M19.059,7.22l-.305.532a.46.46,0,0,1-.562.2A4.115,4.115,0,0,1,17,7.261a.462.462,0,0,1-.1-.585l.305-.532a3.214,3.214,0,0,1-.592-1.02h-.614a.46.46,0,0,1-.454-.384,4.2,4.2,0,0,1,0-1.381.463.463,0,0,1,.454-.387h.614a3.214,3.214,0,0,1,.592-1.02l-.305-.532A.458.458,0,0,1,17,.834a4.164,4.164,0,0,1,1.2-.693.46.46,0,0,1,.562.2l.305.532a3.309,3.309,0,0,1,1.18,0l.305-.532a.46.46,0,0,1,.562-.2,4.115,4.115,0,0,1,1.2.693.462.462,0,0,1,.1.585l-.305.532a3.214,3.214,0,0,1,.592,1.02h.614a.46.46,0,0,1,.454.384,4.2,4.2,0,0,1,0,1.381.463.463,0,0,1-.454.387h-.614a3.214,3.214,0,0,1-.592,1.02l.305.532a.458.458,0,0,1-.1.585,4.164,4.164,0,0,1-1.2.693.46.46,0,0,1-.562-.2l-.305-.532A3.309,3.309,0,0,1,19.059,7.22Zm-.391-2.189a1.391,1.391,0,0,0,1.966-1.966A1.391,1.391,0,0,0,18.668,5.031Zm-4.293,5.73,1.255.626a.9.9,0,0,1,.391,1.084,8.79,8.79,0,0,1-1.586,2.45.89.89,0,0,1-1.128.2l-1.084-.626a6.4,6.4,0,0,1-2.044,1.18v1.251a.891.891,0,0,1-.734.879,8.373,8.373,0,0,1-2.826,0,.9.9,0,0,1-.745-.879V15.672a6.466,6.466,0,0,1-2.044-1.18l-1.084.622a.891.891,0,0,1-1.128-.2A8.777,8.777,0,0,1,.047,12.47a.9.9,0,0,1,.391-1.084l1.24-.626a6.451,6.451,0,0,1,0-2.361L.438,7.771a.888.888,0,0,1-.391-1.08,8.742,8.742,0,0,1,1.571-2.45.89.89,0,0,1,1.128-.2l1.084.626a6.4,6.4,0,0,1,2.044-1.18V2.234a.887.887,0,0,1,.73-.875,8.492,8.492,0,0,1,2.83,0,.9.9,0,0,1,.745.879V3.485a6.466,6.466,0,0,1,2.044,1.18l1.084-.626a.891.891,0,0,1,1.128.2A8.73,8.73,0,0,1,16,6.688a.89.89,0,0,1-.372,1.084L14.375,8.4A6.471,6.471,0,0,1,14.375,10.761ZM10,11.547A2.785,2.785,0,0,0,6.06,7.611,2.785,2.785,0,0,0,10,11.547Zm9.063,6.8-.305.532a.46.46,0,0,1-.562.2,4.115,4.115,0,0,1-1.2-.693.462.462,0,0,1-.1-.585l.305-.532a3.214,3.214,0,0,1-.592-1.02h-.614a.46.46,0,0,1-.454-.384,4.2,4.2,0,0,1,0-1.381.463.463,0,0,1,.454-.387h.614a3.214,3.214,0,0,1,.592-1.02l-.305-.532a.458.458,0,0,1,.1-.585,4.164,4.164,0,0,1,1.2-.693.46.46,0,0,1,.562.2l.305.532a3.309,3.309,0,0,1,1.18,0l.305-.532a.46.46,0,0,1,.562-.2,4.114,4.114,0,0,1,1.2.693.462.462,0,0,1,.1.585l-.305.532a3.214,3.214,0,0,1,.592,1.02h.614a.46.46,0,0,1,.454.384,4.2,4.2,0,0,1,0,1.381.463.463,0,0,1-.454.387h-.614a3.214,3.214,0,0,1-.592,1.02l.305.532a.458.458,0,0,1-.1.585,4.164,4.164,0,0,1-1.2.693.46.46,0,0,1-.562-.2l-.305-.532A3.309,3.309,0,0,1,19.059,18.35Zm-.391-2.193a1.391,1.391,0,0,0,1.966-1.966,1.391,1.391,0,0,0-1.966,1.966Z" transform="translate(0.009 -0.112)"/>
</svg>
