<svg xmlns="http://www.w3.org/2000/svg" viewBox="0 0 19.493 19.493">
  <defs>
    <style>
      .cls-1 {
        fill: #353535;
      }
    </style>
  </defs>
  <path id="compass-regular_1_" data-name="compass-regular (1)" class="cls-1" d="M13.674,12.789,8,15.382a1.255,1.255,0,0,0-.62.62L4.789,21.674a.777.777,0,0,0,1.03,1.03l5.673-2.593a1.255,1.255,0,0,0,.62-.62L14.7,13.819a.777.777,0,0,0-1.03-1.03Zm-3.04,5.845a1.255,1.255,0,1,1,0-1.775A1.255,1.255,0,0,1,10.634,18.634ZM9.746,8a9.746,9.746,0,1,0,9.746,9.746A9.746,9.746,0,0,0,9.746,8Zm0,17.606a7.86,7.86,0,1,1,7.86-7.86A7.869,7.869,0,0,1,9.746,25.606Z" transform="translate(0 -8)"/>
</svg>
