<svg xmlns="http://www.w3.org/2000/svg" viewBox="0 0 15.149 19.389"><defs><style>.a{fill:#353535;}</style></defs><path class="a" d="M0,4.242V3.636a.909.909,0,0,1,.909-.909H14.542V.91A.91.91,0,0,1,16.093.267l3.03,3.03a.909.909,0,0,1,0,1.285l-3.03,3.03a.909.909,0,0,1-1.552-.643V5.151H.909A.909.909,0,0,1,0,4.242ZM18.48,10H4.847V8.181A.91.91,0,0,0,3.3,7.538l-3.03,3.03a.909.909,0,0,0,0,1.285l3.03,3.03a.909.909,0,0,0,1.552-.643V12.422H18.48a.909.909,0,0,0,.909-.909v-.606A.909.909,0,0,0,18.48,10Z" transform="translate(0 19.389) rotate(-90)"/></svg>