<svg xmlns="http://www.w3.org/2000/svg" xmlns:xlink="http://www.w3.org/1999/xlink" viewBox="0 0 827.477 817.704"><defs><style>.a{opacity:0.04;}.b{fill:none;}.c{fill:#4d4d4d;}.d{fill:#67b980;}.e{fill:#333;}.f{fill:url(#a);}.g{opacity:0;fill:url(#b);}.h{fill:#306a53;}.i{fill:url(#c);}.j{fill:url(#d);}.k{fill:#1a191c;}.l{fill:#2e6e51;}.m{fill:url(#e);}.n{fill:url(#f);}.o{fill:url(#g);}.p{fill:url(#h);}.q{fill:#f6f6f6;}.r{fill:url(#i);}.s{fill:#fc736a;}</style><linearGradient id="a" x1="0.765" y1="1.181" x2="0.3" y2="-0.317" gradientUnits="objectBoundingBox"><stop offset="0" stop-color="#c0d5a7"/><stop offset="0.802" stop-color="#c3d594"/><stop offset="0.994" stop-color="#c4d58f"/></linearGradient><linearGradient id="b" y1="0.5" x2="0.999" y2="0.5" gradientUnits="objectBoundingBox"><stop offset="0" stop-color="#32a47b"/><stop offset="0.579" stop-color="#1fa46d"/><stop offset="0.994" stop-color="#0fa460"/></linearGradient><linearGradient id="c" x1="0.599" y1="0.901" x2="0.144" y2="0.163" xlink:href="#a"/><linearGradient id="d" x1="1.001" y1="0.5" x2="0" y2="0.5" gradientUnits="objectBoundingBox"><stop offset="0" stop-color="#4d4d4d"/><stop offset="0.387" stop-color="#484848"/><stop offset="0.876" stop-color="#383838"/><stop offset="0.994" stop-color="#333"/></linearGradient><linearGradient id="e" x1="0.578" y1="0.76" x2="0.436" y2="0.391" xlink:href="#a"/><linearGradient id="f" x1="0.497" y1="0.958" x2="0.507" y2="0.044" gradientUnits="objectBoundingBox"><stop offset="0" stop-color="#4da47b"/><stop offset="0.486" stop-color="#3aa46f"/><stop offset="0.994" stop-color="#22a460"/></linearGradient><linearGradient id="g" x1="0.262" y1="0.748" x2="0.625" y2="0.339" xlink:href="#d"/><linearGradient id="h" x1="0" y1="0.5" x2="1.001" y2="0.5" xlink:href="#a"/><linearGradient id="i" x1="0.002" y1="0.502" x2="1.006" y2="0.502" xlink:href="#b"/></defs><g class="a" transform="matrix(0.966, -0.259, 0.259, 0.966, -9.256, 203.218)"><path class="b" d="M215.4,256.885s12.072,28.016,18.45,33.938c1.594,7.972,17.311,45.782,21.183,47.6s46.466,4.1,49.655,2.733,2.961-35.532,6.15-41.91c2.961-6.378,12.755-24.372,12.755-30.749s2.278-28.016,0-30.294-5.695-17.083-6.378-44.188c-.683-27.333-23.005-4.556-17.766,0s-47.6,4.555-49.2,2.733-9.111-19.589-20.5-12.755c-6.15,8.656-2.733,26.422-4.555,43.049A81.511,81.511,0,0,1,215.4,256.885Z" transform="translate(275.249 231.101)"/><path class="c" d="M240.845,229.161c-5.922-4.1-17.767-17.539-20.5-20.5-4.555-5.011,5.922,6.605,0,0-3.872-4.328-2.733-3.416-7.744-9.339-4.783-5.694-11.389-13.666-11.844-16.627,0-.683-.911-6.833,2.733-9.111s8.656,1.139,9.566,1.822c1.367.911,2.506,2.05,6.606,7.972,4.327,6.605,5.694,9.566,6.377,9.339.456-.228-1.139-8.428-2.505-16.4-1.139-5.694,2.278,12.3,0,0-1.822-9.567-3.645-14.122-1.822-19.133.911-2.505,4.328-3.189,6.833-2.961,3.872.228,6.15,3.417,6.605,4.1,1.367,2.05,1.822,4.783,2.278,8.428a19.956,19.956,0,0,0,.455,3.644l2.733,15.033c.228.683.228,1.367.456,2.05,1.594,5.694,3.872,12.527,4.783,16.172a35.111,35.111,0,0,0,6.378,12.755" transform="translate(256.409 197.098)"/><path class="d" d="M111.12,203.419c-4.1,5.467,1.139,17.539,6.833,23.688,5.239,5.467,9.794,4.1,24.827,9.339,15.944,5.467,15.033,8.427,25.055,10.705,11.161,2.506,14.122-.911,32.8-2.278,26.877-2.05,33.938,3.872,39.633-2.05,8.883-9.111,3.189-35.3-9.339-40.544-9.566-4.1-15.261,7.744-35.988,9.794-9.794,1.139-11.161-1.367-39.633-6.15C119.093,199.319,112.943,200.913,111.12,203.419Z" transform="translate(140.137 257.234)"/><path class="c" d="M244.289,228.661c5.922-4.1,17.767-17.539,20.5-20.5,4.555-5.011-5.923,6.605,0,0,3.872-4.328,2.733-3.417,7.744-9.339,4.783-5.695,11.389-13.666,11.844-16.627,0-.683.911-6.833-2.733-9.111s-8.656,1.139-9.566,1.822c-1.367.911-2.506,2.05-6.605,7.972-4.328,6.605-5.695,9.566-6.378,9.339-.456-.228,1.139-8.427,2.505-16.4,1.139-5.694-2.278,12.3,0,0,1.823-9.567,3.645-14.122,1.823-19.133-.911-2.505-4.328-3.189-6.833-2.961-3.872.228-6.15,3.417-6.605,4.1-1.367,2.05-1.822,4.783-2.278,8.428a19.939,19.939,0,0,1-.455,3.644l-2.733,15.033c-.228.683-.228,1.366-.456,2.05-1.594,5.694-3.872,12.528-4.783,16.172a35.116,35.116,0,0,1-6.378,12.755" transform="translate(297.609 196.459)"/><path class="e" d="M243.612,277.507c-1.139.911-3.416,2.278-5.011,10.705-2.278,12.3-3.417,13.439-1.594,14.122,2.961,1.367,5.239-8.883,6.15-7.516.456.455-1.594,8.427.911,8.655,3.188.456,4.783-7.516,6.833-6.833,2.05.455-.228,8.883,2.733,9.339,1.594.228,2.733-4.556,4.783-8.883,3.189-6.833,4.556-8.883,3.189-12.755C258.417,277.507,248.4,273.862,243.612,277.507Z" transform="translate(301.702 352.838)"/><path class="f" d="M115.489,218.552c7.289,13.438,17.083,20.955,30.066,28.927,29.839,18.678,26.194,17.994,40.316,24.372,16.172,7.289,28.7,9.339,37.81,10.933,14.35,2.278,21.639,3.417,25.966-.228,11.389-9.794,4.328-45.782-14.35-52.388-2.505-.911-1.594.228-13.894,0-17.994-.228-22.549-2.278-31.2.683-5.694,2.05-5.239,3.417-9.567,4.1-7.516,1.139-11.844-2.733-21.639-6.15-10.933-3.645-11.161-.456-19.816-3.645-16.4-5.467-24.372-18.677-26.422-17.083C111.162,208.985,112.756,213.541,115.489,218.552Z" transform="translate(143.285 265.789)"/><path class="g" d="M20.137,463.841c3.417-8.428,12.755-12.983,20.272-17.766,5.922-3.644,10.933-8.656,21.183-18.678a253.048,253.048,0,0,0,22.094-24.827c8.2-9.794,13.894-17.539,19.133-24.827,7.517-10.25,13.666-19.133,18.222-25.739,3.189-5.239,7.744-13.439,13.211-23.689,5.467-10.933,7.972-16.855,17.766-38.266,7.061-15.716,10.705-23.461,13.666-29.839,6.605-13.666,12.3-25.511,21.183-39.86,11.389-18.222,20.272-29.383,23.689-33.255,0,0,4.1-5.011,8.655-9.566,28.472-30.066,67.649-49.883,67.649-49.883,15.033-7.516,36.9-18.45,68.1-23.233a211.181,211.181,0,0,1,72.2,2.05c12.072,2.505,35.988,7.516,62.638,23.233a191.709,191.709,0,0,1,35.76,27.788A236.922,236.922,0,0,1,562.922,201.9c8.428,13.439,18.45,28.927,23.689,51.477,2.733,11.389,3.189,21.183,4.1,40.772.911,20.272-.683,18.905,0,47.833.456,20.955,1.367,26.65-.456,38.949-1.139,8.428-2.961,14.805-6.605,27.333-1.367,4.783-3.644,12.528-12.072,36.9-15.261,43.96-10.25,25.511-15.716,41.91-5.011,15.033-7.289,24.6-15.716,28.244a16.9,16.9,0,0,1-12.528.455c-7.061-2.506-9.794-8.883-10.705-10.705-3.872-8.883-.911-18.45,0-21.183,1.367-4.1,26.65-85.415,11.161-96.8-7.061-5.239-24.372,3.189-36.216,9.111-4.555,2.278-6.15,3.417-17.083,9.111-11.616,5.922-17.311,8.883-20.727,9.567-13.211,2.961-22.55-2.05-25.283,2.505-.911,1.595,0,2.733.456,7.061.911,6.378.228,10.25-.456,17.083-.911,9.339-.683,17.083-.455,27.333.228,12.983,1.367,20.5-1.594,31.205-.911,3.189-2.05,6.605-5.011,9.111-6.378,5.011-15.261,1.594-15.717,1.594-.683-.228-8.428-3.417-10.022-10.022-.911-4.1,1.367-5.694.456-10.022-.911-4.783-4.555-7.289-7.517-10.022-4.555-4.555-7.061-12.3-11.617-27.788-2.278-7.516-2.05-12.983-5.466-24.144-.911-3.417-2.506-7.744-6.606-10.022a12.2,12.2,0,0,0-9.111-.911c-10.022,1.594-19.133-.228-28.244-2.05-7.744-1.595-21.411-4.1-31.205-13.667-1.822-1.594-5.239-5.467-7.061-4.555-1.594.911-.911,4.783-.456,6.605,2.05,12.755,1.594,25.511,2.961,38.266.911,7.061.228,3.417,2.05,19.589,1.139,10.022,1.139,20.272,2.506,30.294.683,5.694,1.594,10.022-.456,15.033-.683,1.594-2.733,6.833-7.972,9.111-6.833,2.733-13.666-1.594-15.033-2.505-1.822-1.139-4.783-3.417-9.111-11.617-4.783-9.111-4.555-13.211-7.517-20.272-1.367-3.189-2.505-4.783-15.033-20.272-4.556-5.467-16.628-20.272-21.183-25.739-12.983-15.716-13.894-17.311-15.033-19.589-4.783-9.794-5.467-17.538-9.566-18.222-2.733-.455-5.011,2.733-8.655,6.606-2.505,2.733-9.111,8.2-22.094,19.133-5.922,5.011-12.3,8.883-25.283,16.627a298.6,298.6,0,0,1-29.155,16.172c-9.339,4.555-16.172,6.833-28.7,11.617-14.122,5.239-21.183,7.289-28.244,8.655-5.467,1.139-14.35,2.505-23.689-.456-6.833-2.278-8.428-5.011-9.111-6.605C19,467.941,19.453,465.891,20.137,463.841Z" transform="translate(24.986 130.743)"/><path class="h" d="M159.2,247.582c-5.922-5.239-7.061-5.467-14.35-10.478a97.8,97.8,0,0,1-12.755-9.567c-10.022-8.655-12.983-11.161-14.122-10.478-1.595.911.911,6.833,5.239,18.677,8.883,23.916,6.833,21.639,11.161,31.205,5.239,11.616,10.25,19.589,15.489,28.016,5.011,8.2,15.716,29.838,18.677,28.472.911-.455.228-7.517-.456-12.983-1.139-8.656-2.733-23.233-3.189-37.583-.228-6.15-.228-11.616-.911-19.816C163.3,249.859,159.2,247.582,159.2,247.582Z" transform="translate(150.142 277.304)"/><path class="h" d="M214.286,299.669c5.922-12.072,5.467-10.705,7.516-15.033a103.937,103.937,0,0,0,5.467-16.627c3.189-13.211,6.15-24.6.683-28.927-1.822-1.594-4.328-1.594-9.566-1.822-5.011-.228-13.667-.456-18.45,3.644-5.011,4.328-1.822,10.25-2.505,28.7,0,0-.911,31.205,1.139,46.922,0,.683-3.189,6.833-2.278,7.289,2.05.683,9.111-8.656,11.161-11.844A99.192,99.192,0,0,0,214.286,299.669Z" transform="translate(250.624 303.115)"/><path class="d" d="M211.918,201.729c-8.883,5.467-12.072,17.994-7.744,27.561,4.555,10.25,16.4,12.528,18.45,12.755,10.933,2.05,26.649-2.278,29.838-13.438,2.961-11.161-8.656-22.322-17.994-26.422C231.507,200.818,221.029,196.034,211.918,201.729Z" transform="translate(258.458 254.369)"/><path class="i" d="M199.614,274.7c-2.961-4.555,6.605-11.844,10.706-29.838,2.05-9.111,7.061-16.172,8.883-25.283a8.3,8.3,0,0,1,2.05-4.1c4.556-4.555,15.944-3.417,21.183,2.278,3.872,4.1,1.139,7.289,4.328,15.944,4.555,12.983,14.122,15.716,12.528,21.411-.684,2.505-2.733,3.189-15.033,9.111-17.083,8.2-18.677,9.339-24.144,10.706C213.736,276.292,202.347,279.026,199.614,274.7Z" transform="translate(254.363 271.826)"/><path class="j" d="M246.8,296.951l9.794,12.072s26.194-30.294,93.387-29.838c12.072-39.633,20.727-76.077,49.883-105.687-1.139-33.711-.455-100.676,49.2-168.1C417.631,35.694,332.215,109.721,301.921,174.864,278.005,239.1,253.405,288.3,246.8,296.951Z" transform="translate(315.37 6.993)"/><path class="k" d="M242.978,293.467l9.339,9.794a1.1,1.1,0,0,0,1.595,0c5.694-7.517,45.327-59.677,52.616-107.509a1.033,1.033,0,0,1,1.822-.456c14.805,21.183,27.105,36.216,46.921,94.071.455.911,1.822.911,1.822-.228.683-11.161-3.872-39.177-44.644-101.587a1.048,1.048,0,0,1,.684-1.594c12.983-1.139,25.51-3.644,94.071-4.328,1.139,0,1.367-1.594.455-1.822-10.25-3.872-30.066-3.644-93.16-3.189a1.1,1.1,0,0,1-.911-1.594C332.721,143.819,397.865,55.9,474.4,1.688c.911-.683.228-2.278-.911-1.594-24.827,11.389-97.26,55.577-190.419,179.03a.837.837,0,0,0-.228.683c1.594,27.561,7.744,54.438-39.633,112.293C242.523,292.556,242.523,293.239,242.978,293.467Z" transform="translate(310.08 0)"/><path class="e" d="M187.3,276.852c-1.139,1.139-3.417,2.961-3.189,12.072.228,13.211-.683,14.578,1.366,15.033,3.644.911,4.1-10.25,5.239-9.111.455.456.228,9.111,2.961,8.883,3.644-.228,3.644-8.655,6.15-8.655s1.822,9.111,5.239,9.111c1.822,0,2.05-5.239,3.417-10.022,2.05-7.745,3.189-10.25.456-13.895C204.381,273.664,191.853,272.069,187.3,276.852Z" transform="translate(235.246 350.303)"/><path class="h" d="M187.506,268.1c-2.278,0-3.872,6.606-4.328,8.656a19.68,19.68,0,0,0,.228,10.933A6.193,6.193,0,0,0,185,290.422c1.822,1.594,5.239,1.367,7.061-.228,2.278-2.05,1.367-5.922.228-11.389C191.15,274.934,189.784,268.1,187.506,268.1Z" transform="translate(233.216 342.656)"/><path class="d" d="M23.806,337.088c-.456-.228-3.417-2.05-3.872-5.011-.911-5.694,8.655-11.389,12.3-13.667,16.628-10.022,31.888-23.461,48.971-32.572s26.422-19.361,46.01-35.533c19.816-16.627,30.066-24.144,34.394-33.255,1.367-2.961,6.15-9.794,9.111-9.339,2.733.455,4.1,7.517,4.783,10.705a33.816,33.816,0,0,1,.683,7.289c-.228,10.705-14.35,22.094-15.716,23.005-31.433,25.511-21.183,22.094-42.822,36.672-19.816,13.438-18.222,9.111-40.772,23.688C48.861,327.066,32.917,342.327,23.806,337.088Z" transform="translate(25.416 265.468)"/><path class="h" d="M239.142,294.494c0-.911.228-1.822.228-2.733.456-3.189,1.367-7.289,2.05-12.755,1.594-13.894,2.505-20.728,2.05-22.55a3.341,3.341,0,0,1,.456-3.189c2.278-2.961,11.161-2.05,13.667,2.278,1.139,1.822.683,3.872.228,5.922-3.872,19.133.228,6.15-4.1,23.461-3.189,12.528-2.961,9.794-4.1,15.033-1.139,5.466-3.645,10.478-4.555,15.716-.228,1.367-.683,3.417-2.05,3.872-1.594.455-3.872-1.595-5.011-3.872-.683-1.822-.228-2.733,0-5.695Z" transform="translate(303.667 321.5)"/><path class="e" d="M132.287,301.186c-1.822,0-3.417-4.328-3.872-6.833-.228-1.139-1.367-7.061,1.822-11.617,5.467-7.289,20.272-5.466,24.372,1.139,1.366,2.278,1.366,4.783,1.594,7.972,0,4.329-.911,10.25-2.733,10.706-4.1.683-3.872-7.289-6.15-7.061s-1.594,8.656-4.328,8.656c-3.189,0-2.961-8.428-5.466-8.428C135.476,295.719,134.565,301.186,132.287,301.186Z" transform="translate(163.614 355.353)"/><path class="l" d="M206.373,301.472c.456-.228,1.367-.683,3.189-10.705,2.278-11.389,2.05-14.805,3.872-20.728,1.367-4.1,1.822-3.872,5.694-12.072,4.556-9.566,7.744-16.4,9.566-24.372,2.278-10.933,1.822-23.233-.455-23.688-2.506-.456-3.872,12.755-13.894,29.383-12.072,19.817-22.322,21.183-23.688,33.483C189.29,287.577,202.273,302.611,206.373,301.472Z" transform="translate(243.504 268.285)"/><path class="m" d="M24.577,329.046a43.016,43.016,0,0,0,15.944,4.1c9.794.683,17.539-1.822,21.866-3.189,19.589-6.377,29.383-9.567,39.633-14.35,8.883-4.1,17.994-8.883,45.555-25.511,43.5-26.194,47.6-30.522,49.2-37.355,3.872-16.855-9.339-38.494-18.45-38.038-1.822,0-3.872,2.278-7.972,6.606-6.833,7.289-7.744,10.478-14.35,18.222-5.011,5.695-7.517,8.656-11.844,11.161-4.556,2.506-6.15,1.823-10.25,4.783-5.011,3.417-5.467,6.15-9.566,9.794-5.011,4.555-8.428,4.1-14.805,7.061-10.705,5.011-7.972,9.794-20.955,18.905-8.655,6.15-15.716,11.161-24.372,11.844a21.182,21.182,0,0,0-9.794,2.733,19.517,19.517,0,0,0-6.15,6.378c-8.2,11.389-28.016,9.111-28.244,12.755C19.794,326.085,20.477,327.452,24.577,329.046Z" transform="translate(25.556 274.421)"/><path class="n" d="M28.322,449.487c-.911-1.139,14.35-16.627,25.966-27.561A313.9,313.9,0,0,0,88,383.66a371.987,371.987,0,0,0,32.116-49.882c11.161-20.955,8.428-20.728,26.422-57.855,6.15-12.528,12.983-26.422,21.866-41.911,10.705-18.905,17.083-28.244,20.5-32.8,1.139-1.594,9.339-12.983,17.766-22.777,25.511-28.927,56.716-45.1,68.56-51.021,12.755-6.378,33.483-16.628,62.866-21.866a204.506,204.506,0,0,1,66.282-1.139c27.561,4.328,46.921,13.439,58.31,18.905a229.667,229.667,0,0,1,51.477,33.938A211.862,211.862,0,0,1,549.7,199.619c7.744,11.616,15.489,23.688,21.183,41.227,4.1,12.527,5.011,22.322,7.289,42.366a461.492,461.492,0,0,1,2.278,56.26c-.456,18.905-.683,31.2-3.417,47.6-3.417,20.728-8.883,35.533-19.589,65.144-10.478,28.7-11.844,25.966-15.944,38.494a74.7,74.7,0,0,1-7.972,16.172c-3.417,5.239-5.239,6.833-6.833,7.517-5.694,2.961-14.122,2.05-16.627-2.278-1.594-2.733-.228-5.922,1.822-11.617,2.733-7.516,3.872-15.716,6.15-23.461,2.733-9.339,3.872-17.083,6.15-32.572,1.139-7.972,13.894-97.487-13.211-108.876-7.972-3.417-25.283-2.505-37.355,1.139-3.189.911-8.883,2.961-15.033,1.139-6.605-2.05-12.3-7.744-12.528-7.972-3.644-3.644-4.783-6.833-6.15-6.378s-.911,4.783-1.139,10.933c-.228,7.061-1.594,11.844-2.961,18.222-1.594,6.605-3.417,10.933-6.378,18.45-5.239,13.211-7.972,19.589-11.389,23.461-8.428,9.339-15.944,11.616-15.489,16.627.228,1.822,1.139,3.644,4.328,7.061,0,0,5.466,3.644,7.972,12.3,1.822,5.922,2.05,9.794,1.594,21.866-.911,19.589-1.367,19.817-.683,29.611v11.617c0,7.061,0,9.111-1.594,11.388-2.278,3.644-6.605,4.783-8.428,5.239a18.605,18.605,0,0,1-13.894-1.822c-1.822-1.139-6.378-3.417-7.972-8.428-1.139-3.872-1.139-5.239-2.05-9.567-.911-4.555-1.822-6.378-5.239-10.705-3.644-4.556-2.278-5.011-8.655-20.044-5.011-11.616-6.378-12.528-7.517-18.45-1.367-7.061-.228-7.289-1.822-12.755-2.05-7.289-4.783-8.883-9.567-17.539a65.511,65.511,0,0,1-6.378-15.944c-3.189-10.705-1.367-12.3-4.556-24.144-2.961-11.161-4.555-10.022-5.694-17.766-1.822-12.3,1.367-20.727-1.594-21.866-1.594-.683-4.1,1.594-6.833,3.872-3.644,3.189-4.556,5.467-6.378,7.517-2.278,2.278-5.467,3.644-16.172,4.1-8.883.455-16.855.911-28.7-.683a153.338,153.338,0,0,1-20.044-4.1c-2.05-.456-4.556-1.367-19.589-6.15-11.617-3.644-15.944-5.011-17.083-3.417-.683.911-.228,2.278,2.733,7.289,4.555,7.972,8.655,13.439,8.655,13.666,3.872,5.239,5.694,9.339,9.567,17.766,4.1,9.111,3.417,10.478,9.566,28.472a193.546,193.546,0,0,0,6.833,18.222c.911,2.278,5.239,11.389,13.211,22.777,8.883,12.755,13.211,15.033,15.944,24.144a61.877,61.877,0,0,1,1.822,12.072c1.139,11.161-.456,10.933.456,22.778.456,5.467.911,7.972-.683,10.933-2.05,3.645-6.15,5.011-7.972,5.694-1.367.456-7.061,2.278-12.755-.456-4.1-1.822-6.15-5.011-7.289-6.378-2.506-3.872-2.733-6.833-3.872-10.933-1.139-4.783-3.189-8.2-6.833-15.033-3.872-7.289-6.833-10.022-15.033-20.044-9.567-11.617-7.744-10.933-16.628-21.866-12.755-15.944-14.122-14.349-20.044-23.461-3.189-4.783-2.05-4.1-13.667-27.333-9.566-19.133-9.566-18.222-11.389-23.005-4.783-13.211-5.239-22.777-8.655-23.005-1.822-.228-3.189,2.505-5.239,6.15-3.417,5.467-3.872,6.605-16.628,18.45-16.855,16.172-15.261,14.805-23.916,22.322-6.605,5.694-14.578,11.161-30.294,21.866-13.439,9.111-20.5,13.439-24.6,15.944C52.238,432.859,29.461,451.081,28.322,449.487Z" transform="translate(36.161 130.748)"/><path class="o" d="M338.395,296.351s-38.038,3.189-55.349,11.617a2.865,2.865,0,0,1-2.961-.456c-16.172-13.439-66.282-51.933-132.337-23.233-11.389-28.7-18.45-72.66-74.482-95.437C83.06,153.309,98.321,102.515,14.5,21.2,68.027,38.511,246.83,148.3,246.83,148.3,248.2,167.2,251.157,222.325,338.395,296.351Z" transform="translate(18.55 27.182)"/><path class="k" d="M244.345,232.661c-5.922-4.1-17.766-17.539-20.5-20.5-4.555-5.011,5.922,6.605,0,0-3.872-4.328-2.733-3.417-7.744-9.339-4.783-5.694-11.389-13.666-11.845-16.627,0-.683-.911-6.833,2.733-9.111s8.656,1.139,9.567,1.822c1.367.911,2.505,2.05,6.605,7.972,4.328,6.605,5.694,9.567,6.378,9.339.456-.228-1.139-8.428-2.506-16.4-1.139-5.694,2.278,12.3,0,0-1.822-9.566-3.644-14.122-1.822-19.133.911-2.506,4.328-3.189,6.833-2.961,3.872.228,6.15,3.417,6.605,4.1,1.367,2.05,1.822,4.783,2.278,8.428a19.913,19.913,0,0,0,.456,3.644l2.733,15.033c.228.683.228,1.367.455,2.05,1.595,5.694,3.872,12.527,4.783,16.172a35.118,35.118,0,0,0,6.377,12.756" transform="translate(260.881 201.57)"/><path class="k" d="M.934,15.714C42.161,27.786,172.676,69.925,285.2,155.34c.228,0,.228.228.228.456.911,5.467,1.367,10.25-9.111,16.172-.228.228-.456.456-.456.683,3.189,24.144,15.944,87.693,88.376,102.726a.49.49,0,0,1,.456.456c3.872,12.3,5.694,19.589-7.744,28.016a.693.693,0,0,1-.911,0c-14.122-13.211-83.821-46.238-88.376-125.5a.639.639,0,0,0-1.139-.456c-22.094,22.55-58.082,53.755-100.676,115.937a.774.774,0,0,1-1.367-.683c11.844-26.877,56.26-102.726,96.121-123a.728.728,0,0,0-.456-1.367c-59.677,2.961-118.443,7.744-170.147,28.7-.911.456-1.367-.911-.683-1.367,25.738-14.122,105-44.188,164.908-41.91a.75.75,0,0,0,.456-1.367C234.63,137.573,122.11,66.052.479,17.081-.433,16.853.023,15.487.934,15.714Z" transform="translate(0 20.14)"/><path class="p" d="M294.744,295.042A22.828,22.828,0,0,1,282.9,305.064a26.4,26.4,0,0,1-14.35,1.367c-11.844-2.278-18.9-12.3-22.094-16.855-5.922-8.428-4.1-10.933-12.3-27.789-4.556-9.111-5.239-8.883-9.111-16.855-1.139-2.505-12.755-26.649-8.655-29.61,2.733-1.822,9.339,8.2,24.144,18.677,25.51,17.994,39.4,12.755,50.11,28.927,5.467,8.427,7.972,19.361,6.15,26.877A19.29,19.29,0,0,1,294.744,295.042Z" transform="translate(275.398 274.942)"/><path class="k" d="M279.633,227.952c2.506-6.833,4.783-24.6,5.239-28.472.911-6.833-1.139,8.883,0,0,.684-5.922.456-4.556,1.139-12.072.683-7.289,1.822-17.766.456-20.5-.228-.683-3.189-6.15-7.516-5.922-4.1.228-6.606,5.922-6.833,6.833-.683,1.367-.911,2.961-.911,10.25.228,7.744.683,11.161,0,11.161-.455.228-3.872-7.517-7.289-15.033-2.278-5.239,5.011,11.389,0,0-4.1-8.883-5.011-13.666-9.339-16.855-2.05-1.367-5.467-.228-7.289,1.367-2.961,2.278-3.189,6.15-3.189,7.061,0,2.505,1.139,5.011,2.961,8.2a20.808,20.808,0,0,1,1.594,3.189l6.15,14.122.683,2.05c2.05,5.467,3.872,12.528,5.239,15.944a34,34,0,0,1,1.822,14.35" transform="translate(311.92 200.357)"/><path class="q" d="M220.787,218.944c-3.645.911-4.783,9.566-4.783,13.438,0,2.961-.228,7.061,2.278,10.25,4.556,6.378,15.717,7.744,18.678,4.1C241.969,240.583,227.164,217.349,220.787,218.944Z" transform="translate(276.012 279.747)"/><path class="r" d="M223.319,194.954a21.509,21.509,0,0,0-.456,8.427c.456,3.872,1.139,4.328,1.822,9.111a32.231,32.231,0,0,1,.683,10.706c-.228,2.278-.911,4.783-2.505,9.794a56.97,56.97,0,0,1-2.733,8.2c-2.505,6.15-3.644,6.378-4.328,10.25a24.1,24.1,0,0,0,0,8.2,30,30,0,0,0,4.1,10.705c1.367,2.505,1.823,2.961,5.467,8.428,3.189,5.011,5.011,7.289,6.15,9.566,1.367,2.278,1.594,2.961,6.15,13.894,4.555,10.478,4.1,9.566,5.011,11.844,3.417,8.656,5.239,12.983,5.239,13.211a31.694,31.694,0,0,0,3.872,7.972,13.545,13.545,0,0,0,4.1,3.872c4.328,2.733,10.478,2.733,15.033.455,3.417-1.594,3.189-3.417,6.377-4.1,4.1-.911,7.744.911,8.428,1.139,2.733,1.367,2.506,2.733,5.239,3.872a11.89,11.89,0,0,0,7.972.911,10.226,10.226,0,0,0,6.605-3.872c1.367-2.05,1.139-3.645,1.367-7.972,0,0,0-.683.683-11.389a76.823,76.823,0,0,1,2.733-16.172c1.595-6.378,2.506-9.794,4.556-13.211,2.733-4.555,4.555-4.555,7.289-9.566a34.662,34.662,0,0,0,3.872-11.388c1.139-7.061,0-12.528-.911-17.311a61.457,61.457,0,0,0-2.733-9.794c-2.05-6.377-2.961-7.517-3.872-11.616a50.382,50.382,0,0,1-1.139-10.706c-.228-6.378.683-7.972.911-16.628.228-7.744-.456-9.339-.911-10.705a12.6,12.6,0,0,0-8.427-7.516c-3.644-.911-8.2-.683-10.25,1.822-2.506,2.961,0,4.783-3.417,8.427-1.822,2.05-8.428,2.506-11.616,2.278-2.961-.228,3.189.455,0,0-4.1-.683-12.072-.456-19.816.228-8.428.683-11.161,2.05-13.894,0-1.139-.911-.911-1.139-3.872-5.695s-4.556-6.833-6.833-7.972c-4.1-1.822-8.2,0-8.428,0-2.278.911-3.417,2.505-5.011,4.555C224.458,190.854,223.547,194.043,223.319,194.954Z" transform="translate(275.302 232.444)"/><path class="s" d="M233.411,216.229c-2.733.456-8.428,1.594-10.933,6.605-.228.456-2.05,4.555-.228,7.972,2.733,5.011,10.933,4.328,12.3,4.328,6.605-.456,15.033-4.783,15.033-10.25,0-3.189-2.506-5.694-3.189-6.378C242.294,214.407,236.144,215.774,233.411,216.229Z" transform="translate(282.976 275.628)"/><path class="s" d="M256.71,216.135c-1.139.455-2.733,2.505-3.189,5.239-.455,2.278-.455,3.872,2.733,7.516,3.417,4.1,6.15,7.061,10.25,7.517.911,0,3.189.456,5.239-.911,4.1-2.733,2.961-10.022,2.734-10.705a12.11,12.11,0,0,0-3.873-7.061C266.732,214.313,260.81,214.085,256.71,216.135Z" transform="translate(323.682 274.584)"/></g></svg>