<svg xmlns="http://www.w3.org/2000/svg" xmlns:xlink="http://www.w3.org/1999/xlink" viewBox="0 0 99.455 83.573">
  <defs>
    <style>
      .cls-1 {
        fill: none;
      }

      .cls-2 {
        fill: #4d4d4d;
      }

      .cls-3 {
        fill: #67b980;
      }

      .cls-4 {
        fill: #333;
      }

      .cls-5 {
        fill: url(#linear-gradient);
      }

      .cls-6 {
        opacity: 0;
        fill: url(#linear-gradient-2);
      }

      .cls-7 {
        fill: #306a53;
      }

      .cls-8 {
        fill: url(#linear-gradient-3);
      }

      .cls-9 {
        fill: url(#linear-gradient-4);
      }

      .cls-10 {
        fill: #1a191c;
      }

      .cls-11 {
        fill: #2e6e51;
      }

      .cls-12 {
        fill: url(#linear-gradient-5);
      }

      .cls-13 {
        fill: url(#linear-gradient-6);
      }

      .cls-14 {
        fill: url(#linear-gradient-7);
      }

      .cls-15 {
        fill: url(#linear-gradient-8);
      }

      .cls-16 {
        fill: #f6f6f6;
      }

      .cls-17 {
        fill: url(#linear-gradient-9);
      }

      .cls-18 {
        fill: #fc736a;
      }
    </style>
    <linearGradient id="linear-gradient" x1="0.765" y1="1.181" x2="0.3" y2="-0.317" gradientUnits="objectBoundingBox">
      <stop offset="0" stop-color="#c0d5a7"/>
      <stop offset="0.802" stop-color="#c3d594"/>
      <stop offset="0.994" stop-color="#c4d58f"/>
    </linearGradient>
    <linearGradient id="linear-gradient-2" y1="0.5" x2="0.999" y2="0.5" gradientUnits="objectBoundingBox">
      <stop offset="0" stop-color="#32a47b"/>
      <stop offset="0.579" stop-color="#1fa46d"/>
      <stop offset="0.994" stop-color="#0fa460"/>
    </linearGradient>
    <linearGradient id="linear-gradient-3" x1="0.599" y1="0.901" x2="0.144" y2="0.163" xlink:href="#linear-gradient"/>
    <linearGradient id="linear-gradient-4" x1="1.001" y1="0.5" x2="0" y2="0.5" gradientUnits="objectBoundingBox">
      <stop offset="0" stop-color="#4d4d4d"/>
      <stop offset="0.387" stop-color="#484848"/>
      <stop offset="0.876" stop-color="#383838"/>
      <stop offset="0.994" stop-color="#333"/>
    </linearGradient>
    <linearGradient id="linear-gradient-5" x1="0.578" y1="0.76" x2="0.436" y2="0.391" xlink:href="#linear-gradient"/>
    <linearGradient id="linear-gradient-6" x1="0.497" y1="0.958" x2="0.507" y2="0.044" gradientUnits="objectBoundingBox">
      <stop offset="0" stop-color="#4da47b"/>
      <stop offset="0.486" stop-color="#3aa46f"/>
      <stop offset="0.994" stop-color="#22a460"/>
    </linearGradient>
    <linearGradient id="linear-gradient-7" x1="0.262" y1="0.748" x2="0.625" y2="0.339" xlink:href="#linear-gradient-4"/>
    <linearGradient id="linear-gradient-8" x1="0" y1="0.5" x2="1.001" y2="0.5" xlink:href="#linear-gradient"/>
    <linearGradient id="linear-gradient-9" x1="0.002" y1="0.502" x2="1.006" y2="0.502" xlink:href="#linear-gradient-2"/>
  </defs>
  <g id="Group_6" data-name="Group 6" transform="translate(0.018 0.073)">
    <path id="Path_6" data-name="Path 6" class="cls-1" d="M215.4,190.435s1.53,3.55,2.338,4.3c.2,1.01,2.193,5.8,2.684,6.032a33.268,33.268,0,0,0,6.292.346c.4-.173.375-4.5.779-5.31.375-.808,1.616-3.088,1.616-3.9s.289-3.55,0-3.839-.722-2.165-.808-5.6c-.087-3.463-2.915-.577-2.251,0s-6.032.577-6.234.346-1.154-2.482-2.6-1.616c-.779,1.1-.346,3.348-.577,5.455A10.328,10.328,0,0,1,215.4,190.435Z" transform="translate(-153.247 -128.667)"/>
    <path id="Path_7" data-name="Path 7" class="cls-2" d="M205.748,163.682a24.372,24.372,0,0,1-2.6-2.6c-.577-.635.75.837,0,0-.491-.548-.346-.433-.981-1.183a8.851,8.851,0,0,1-1.5-2.107c0-.087-.115-.866.346-1.154s1.1.144,1.212.231c.173.115.317.26.837,1.01.548.837.721,1.212.808,1.183a16.051,16.051,0,0,0-.317-2.078c-.144-.722.289,1.558,0,0-.231-1.212-.462-1.789-.231-2.424.115-.317.548-.4.866-.375a1.148,1.148,0,0,1,.837.52,2.485,2.485,0,0,1,.289,1.068,2.525,2.525,0,0,0,.058.462l.346,1.9c.029.087.029.173.058.26.2.722.491,1.587.606,2.049a4.449,4.449,0,0,0,.808,1.616" transform="translate(-142.758 -109.736)"/>
    <path id="Path_8" data-name="Path 8" class="cls-3" d="M109.843,201.521c-.519.693.144,2.222.866,3,.664.693,1.241.52,3.146,1.183,2.02.693,1.9,1.068,3.175,1.356,1.414.317,1.789-.115,4.156-.289,3.406-.26,4.3.491,5.022-.26,1.126-1.154.4-4.473-1.183-5.137-1.212-.52-1.934.981-4.56,1.241-1.241.144-1.414-.173-5.022-.779C110.853,201,110.074,201.2,109.843,201.521Z" transform="translate(-78.023 -143.217)"/>
    <path id="Path_9" data-name="Path 9" class="cls-2" d="M234.343,163.182a24.37,24.37,0,0,0,2.6-2.6c.577-.635-.75.837,0,0,.491-.548.346-.433.981-1.183a8.852,8.852,0,0,0,1.5-2.107c0-.087.115-.866-.346-1.154s-1.1.144-1.212.231c-.173.115-.317.26-.837,1.01-.548.837-.722,1.212-.808,1.183a16.059,16.059,0,0,1,.317-2.078c.144-.722-.289,1.558,0,0,.231-1.212.462-1.789.231-2.424-.115-.317-.548-.4-.866-.375a1.148,1.148,0,0,0-.837.52,2.485,2.485,0,0,0-.289,1.068,2.528,2.528,0,0,1-.058.462l-.346,1.9c-.029.087-.029.173-.058.26-.2.722-.491,1.587-.606,2.049a4.449,4.449,0,0,1-.808,1.616" transform="translate(-165.696 -109.38)"/>
    <path id="Path_10" data-name="Path 10" class="cls-4" d="M237.055,276.251c-.144.115-.433.289-.635,1.356-.289,1.558-.433,1.7-.2,1.789.375.173.664-1.126.779-.952.058.058-.2,1.068.115,1.1.4.058.606-.952.866-.866.26.058-.029,1.126.346,1.183.2.029.346-.577.606-1.126.4-.866.577-1.126.4-1.616C238.931,276.251,237.661,275.789,237.055,276.251Z" transform="translate(-167.975 -196.445)"/>
    <path id="Path_11" data-name="Path 11" class="cls-5" d="M112.548,209.286a9.509,9.509,0,0,0,3.81,3.665c3.781,2.367,3.319,2.28,5.108,3.088a18.261,18.261,0,0,0,4.791,1.385c1.818.289,2.742.433,3.29-.029,1.443-1.241.548-5.8-1.818-6.638-.317-.115-.2.029-1.761,0-2.28-.029-2.857-.289-3.954.087-.722.26-.664.433-1.212.52-.952.144-1.5-.346-2.742-.779-1.385-.462-1.414-.058-2.511-.462-2.078-.693-3.088-2.367-3.348-2.165C112,208.074,112.2,208.651,112.548,209.286Z" transform="translate(-79.775 -147.98)"/>
    <path id="Path_12" data-name="Path 12" class="cls-6" d="M19.613,148.067c.433-1.068,1.616-1.645,2.569-2.251a16.892,16.892,0,0,0,2.684-2.367,32.063,32.063,0,0,0,2.8-3.146c1.039-1.241,1.761-2.222,2.424-3.146.952-1.3,1.732-2.424,2.309-3.261.4-.664.981-1.7,1.674-3,.693-1.385,1.01-2.136,2.251-4.849.895-1.991,1.356-2.973,1.732-3.781a50.9,50.9,0,0,1,2.684-5.051,35.028,35.028,0,0,1,3-4.214s.519-.635,1.1-1.212a35.686,35.686,0,0,1,8.572-6.32,27.569,27.569,0,0,1,8.629-2.944,26.758,26.758,0,0,1,9.149.26,24.87,24.87,0,0,1,7.937,2.944,24.291,24.291,0,0,1,4.531,3.521,30.019,30.019,0,0,1,4.733,5.628,20.216,20.216,0,0,1,3,6.523,26.42,26.42,0,0,1,.519,5.166c.115,2.569-.087,2.4,0,6.061a26.255,26.255,0,0,1-.058,4.935,22.382,22.382,0,0,1-.837,3.463c-.173.606-.462,1.587-1.53,4.675-1.934,5.57-1.3,3.232-1.991,5.31-.635,1.9-.924,3.117-1.991,3.579a2.141,2.141,0,0,1-1.587.058,2.464,2.464,0,0,1-1.356-1.356,3.9,3.9,0,0,1,0-2.684c.173-.519,3.377-10.823,1.414-12.266-.895-.664-3.088.4-4.589,1.154-.577.289-.779.433-2.165,1.154a15.033,15.033,0,0,1-2.626,1.212c-1.674.375-2.857-.26-3.2.317-.115.2,0,.346.058.895a7.832,7.832,0,0,1-.058,2.165,27.363,27.363,0,0,0-.058,3.463,12.539,12.539,0,0,1-.2,3.954,2.2,2.2,0,0,1-.635,1.154,2.3,2.3,0,0,1-1.991.2,2.138,2.138,0,0,1-1.27-1.27c-.115-.519.173-.722.058-1.27a2.377,2.377,0,0,0-.952-1.27c-.577-.577-.895-1.558-1.472-3.521-.289-.952-.26-1.645-.693-3.059a1.924,1.924,0,0,0-.837-1.27,1.546,1.546,0,0,0-1.154-.115,9.83,9.83,0,0,1-3.579-.26,7.627,7.627,0,0,1-3.954-1.732c-.231-.2-.664-.693-.895-.577-.2.115-.115.606-.058.837.26,1.616.2,3.232.375,4.849.115.895.029.433.26,2.482.144,1.27.144,2.569.317,3.838a3.533,3.533,0,0,1-.058,1.9,2.057,2.057,0,0,1-1.01,1.154,2.18,2.18,0,0,1-1.9-.317,3.429,3.429,0,0,1-1.154-1.472,19.7,19.7,0,0,1-.952-2.569,12.521,12.521,0,0,0-1.9-2.569c-.577-.693-2.107-2.569-2.684-3.261a15.009,15.009,0,0,1-1.9-2.482c-.606-1.241-.693-2.222-1.212-2.309-.346-.058-.635.346-1.1.837-.317.346-1.154,1.039-2.8,2.424a23.458,23.458,0,0,1-3.2,2.107,37.844,37.844,0,0,1-3.694,2.049c-1.183.577-2.049.866-3.636,1.472a21.706,21.706,0,0,1-3.579,1.1,5.9,5.9,0,0,1-3-.058c-.866-.289-1.068-.635-1.154-.837A.708.708,0,0,1,19.613,148.067Z" transform="translate(-13.911 -72.792)"/>
    <path id="Path_13" data-name="Path 13" class="cls-7" d="M122.773,220.834a13.468,13.468,0,0,0-1.818-1.328,12.393,12.393,0,0,1-1.616-1.212c-1.27-1.1-1.645-1.414-1.789-1.328-.2.115.115.866.664,2.367,1.126,3.03.866,2.742,1.414,3.954a27.97,27.97,0,0,0,1.963,3.55c.635,1.039,1.991,3.781,2.367,3.608a4.638,4.638,0,0,0-.058-1.645c-.144-1.1-.346-2.944-.4-4.762-.029-.779-.029-1.472-.115-2.511C123.292,221.123,122.773,220.834,122.773,220.834Z" transform="translate(-83.593 -154.391)"/>
    <path id="Path_14" data-name="Path 14" class="cls-7" d="M198.429,245.075c.75-1.53.693-1.356.952-1.9a13.172,13.172,0,0,0,.693-2.107c.4-1.674.779-3.117.087-3.665-.231-.2-.548-.2-1.212-.231a3.582,3.582,0,0,0-2.338.462c-.635.548-.231,1.3-.317,3.636a52.287,52.287,0,0,0,.144,5.945c0,.087-.4.866-.289.924.26.087,1.154-1.1,1.414-1.5A12.569,12.569,0,0,0,198.429,245.075Z" transform="translate(-139.537 -168.762)"/>
    <path id="Path_15" data-name="Path 15" class="cls-3" d="M203.483,199.349a2.832,2.832,0,0,0-.981,3.492,3.09,3.09,0,0,0,2.338,1.616c1.385.26,3.377-.289,3.781-1.7.375-1.414-1.1-2.828-2.28-3.348A3.055,3.055,0,0,0,203.483,199.349Z" transform="translate(-143.899 -141.622)"/>
    <path id="Path_16" data-name="Path 16" class="cls-8" d="M199.125,220.526c-.375-.577.837-1.5,1.356-3.781.26-1.154.895-2.049,1.126-3.2a1.051,1.051,0,0,1,.26-.52,2.129,2.129,0,0,1,2.684.289c.491.519.144.924.548,2.02.577,1.645,1.789,1.991,1.587,2.713-.087.317-.346.4-1.9,1.154a16.433,16.433,0,0,1-3.059,1.356C200.915,220.728,199.472,221.074,199.125,220.526Z" transform="translate(-141.619 -151.341)"/>
    <path id="Path_17" data-name="Path 17" class="cls-9" d="M246.8,42.342l1.241,1.53s3.319-3.838,11.833-3.781c1.53-5.022,2.626-9.639,6.32-13.391a32.68,32.68,0,0,1,6.234-21.3c-3.983,3.838-14.806,13.218-18.644,21.472C250.754,35.011,247.637,41.245,246.8,42.342Z" transform="translate(-175.585 -3.894)"/>
    <path id="Path_18" data-name="Path 18" class="cls-10" d="M242.7,37.121l1.183,1.241a.139.139,0,0,0,.2,0c.722-.952,5.743-7.562,6.667-13.622a.131.131,0,0,1,.231-.058c1.876,2.684,3.434,4.589,5.945,11.919.058.115.231.115.231-.029.087-1.414-.491-4.964-5.657-12.872a.133.133,0,0,1,.087-.2,100.258,100.258,0,0,1,11.919-.548c.144,0,.173-.2.058-.231-1.3-.491-3.81-.462-11.8-.4a.139.139,0,0,1-.115-.2C254.072,18.159,262.326,7.019,272.023.15c.115-.087.029-.289-.115-.2-3.146,1.443-12.324,7.042-24.128,22.685a.106.106,0,0,0-.029.087c.2,3.492.981,6.9-5.022,14.228C242.643,37.005,242.643,37.092,242.7,37.121Z" transform="translate(-172.64)"/>
    <path id="Path_19" data-name="Path 19" class="cls-4" d="M184.5,274.436c-.144.144-.433.375-.4,1.53.029,1.674-.087,1.847.173,1.9.462.115.519-1.3.664-1.154.058.058.029,1.154.375,1.126.462-.029.462-1.1.779-1.1s.231,1.154.664,1.154c.231,0,.26-.664.433-1.27.26-.981.4-1.3.058-1.761A2.064,2.064,0,0,0,184.5,274.436Z" transform="translate(-130.975 -195.034)"/>
    <path id="Path_20" data-name="Path 20" class="cls-7" d="M183.138,268.1c-.289,0-.491.837-.548,1.1a2.494,2.494,0,0,0,.029,1.385.785.785,0,0,0,.2.346.737.737,0,0,0,.895-.029c.289-.26.173-.75.029-1.443C183.6,268.966,183.426,268.1,183.138,268.1Z" transform="translate(-129.845 -190.776)"/>
    <path id="Path_21" data-name="Path 21" class="cls-3" d="M20.372,224.086a.992.992,0,0,1-.491-.635c-.115-.722,1.1-1.443,1.558-1.732,2.107-1.27,4.041-2.973,6.205-4.127s3.348-2.453,5.83-4.5c2.511-2.107,3.81-3.059,4.358-4.214.173-.375.779-1.241,1.154-1.183.346.058.519.952.606,1.356a4.285,4.285,0,0,1,.087.924c-.029,1.356-1.818,2.8-1.991,2.915-3.983,3.232-2.684,2.8-5.426,4.647-2.511,1.7-2.309,1.154-5.166,3C23.546,222.816,21.526,224.75,20.372,224.086Z" transform="translate(-14.151 -147.802)"/>
    <path id="Path_22" data-name="Path 22" class="cls-7" d="M237.832,256.985c0-.115.029-.231.029-.346.058-.4.173-.924.26-1.616a19.126,19.126,0,0,0,.26-2.857.423.423,0,0,1,.058-.4,1.3,1.3,0,0,1,1.732.289.964.964,0,0,1,.029.75c-.491,2.424.029.779-.519,2.973-.4,1.587-.375,1.241-.52,1.9-.144.693-.462,1.328-.577,1.991-.029.173-.087.433-.26.491-.2.058-.491-.2-.635-.491-.087-.231-.029-.346,0-.722Z" transform="translate(-169.069 -178.998)"/>
    <path id="Path_23" data-name="Path 23" class="cls-4" d="M128.571,280.97c-.231,0-.433-.548-.491-.866a2,2,0,0,1,.231-1.472,2.134,2.134,0,0,1,3.088.144,2.178,2.178,0,0,1,.2,1.01c0,.548-.115,1.3-.346,1.356-.519.087-.491-.924-.779-.895s-.2,1.1-.548,1.1c-.4,0-.375-1.068-.693-1.068C128.975,280.277,128.859,280.97,128.571,280.97Z" transform="translate(-91.094 -197.845)"/>
    <path id="Path_24" data-name="Path 24" class="cls-11" d="M192.56,221.5c.058-.029.173-.087.4-1.356.289-1.443.26-1.876.491-2.626a13.52,13.52,0,0,1,.722-1.53,14.73,14.73,0,0,0,1.212-3.088c.289-1.385.231-2.944-.058-3-.317-.058-.491,1.616-1.761,3.723-1.53,2.511-2.828,2.684-3,4.243C190.4,219.738,192.041,221.643,192.56,221.5Z" transform="translate(-135.573 -149.37)"/>
    <path id="Path_25" data-name="Path 25" class="cls-12" d="M20.565,229.186a5.45,5.45,0,0,0,2.02.52,7.17,7.17,0,0,0,2.771-.4,43.471,43.471,0,0,0,5.022-1.818,57.233,57.233,0,0,0,5.772-3.232c5.512-3.319,6.032-3.867,6.234-4.733.491-2.136-1.183-4.877-2.338-4.82-.231,0-.491.289-1.01.837-.866.924-.981,1.328-1.818,2.309a5.992,5.992,0,0,1-1.5,1.414c-.577.317-.779.231-1.3.606-.635.433-.693.779-1.212,1.241-.635.577-1.068.52-1.876.895-1.356.635-1.01,1.241-2.655,2.4a6.4,6.4,0,0,1-3.088,1.5,2.684,2.684,0,0,0-1.241.346,2.473,2.473,0,0,0-.779.808c-1.039,1.443-3.55,1.154-3.579,1.616C19.959,228.811,20.046,228.984,20.565,229.186Z" transform="translate(-14.229 -152.786)"/>
    <path id="Path_26" data-name="Path 26" class="cls-13" d="M28.288,146.251c-.115-.144,1.818-2.107,3.29-3.492a39.777,39.777,0,0,0,4.271-4.849,47.134,47.134,0,0,0,4.069-6.32c1.414-2.655,1.068-2.626,3.348-7.331.779-1.587,1.645-3.348,2.771-5.31a40.112,40.112,0,0,1,2.6-4.156c.144-.2,1.183-1.645,2.251-2.886a28.821,28.821,0,0,1,8.687-6.465,27.93,27.93,0,0,1,7.966-2.771,25.912,25.912,0,0,1,8.4-.144,25.411,25.411,0,0,1,7.388,2.4,29.1,29.1,0,0,1,6.523,4.3,26.844,26.844,0,0,1,4.5,5.368,20.041,20.041,0,0,1,2.684,5.224,25.108,25.108,0,0,1,.924,5.368,58.473,58.473,0,0,1,.289,7.129,39.254,39.254,0,0,1-.433,6.032,43.7,43.7,0,0,1-2.482,8.254c-1.328,3.636-1.5,3.29-2.02,4.877a9.466,9.466,0,0,1-1.01,2.049c-.433.664-.664.866-.866.952a1.725,1.725,0,0,1-2.107-.289c-.2-.346-.029-.75.231-1.472.346-.952.491-1.991.779-2.973a28.718,28.718,0,0,0,.779-4.127c.144-1.01,1.761-12.352-1.674-13.8a8.613,8.613,0,0,0-4.733.144,3.267,3.267,0,0,1-1.9.144,4.482,4.482,0,0,1-1.587-1.01c-.462-.462-.606-.866-.779-.808s-.115.606-.144,1.385a11.692,11.692,0,0,1-.375,2.309,16.176,16.176,0,0,1-.808,2.338,11.02,11.02,0,0,1-1.443,2.973c-1.068,1.183-2.02,1.472-1.963,2.107a1.64,1.64,0,0,0,.548.895,2.9,2.9,0,0,1,1.01,1.558,7.226,7.226,0,0,1,.2,2.771,25.444,25.444,0,0,0-.087,3.752v1.472c0,.895,0,1.154-.2,1.443a1.706,1.706,0,0,1-1.068.664,2.357,2.357,0,0,1-1.761-.231,2.023,2.023,0,0,1-1.01-1.068c-.144-.491-.144-.664-.26-1.212a2.6,2.6,0,0,0-.664-1.356c-.462-.577-.289-.635-1.1-2.54a10.95,10.95,0,0,1-.952-2.338,15.433,15.433,0,0,0-.231-1.616,9.616,9.616,0,0,0-1.212-2.222,8.3,8.3,0,0,1-.808-2.02c-.4-1.356-.173-1.558-.577-3.059a20.752,20.752,0,0,1-.722-2.251c-.231-1.558.173-2.626-.2-2.771-.2-.087-.519.2-.866.491a6.151,6.151,0,0,0-.808.952c-.289.289-.693.462-2.049.52a17.529,17.529,0,0,1-3.636-.087,19.425,19.425,0,0,1-2.54-.52c-.26-.058-.577-.173-2.482-.779-1.472-.462-2.02-.635-2.165-.433-.087.115-.029.289.346.924.577,1.01,1.1,1.7,1.1,1.732a11.288,11.288,0,0,1,1.212,2.251c.519,1.154.433,1.328,1.212,3.608a24.524,24.524,0,0,0,.866,2.309,17.083,17.083,0,0,0,1.674,2.886c1.126,1.616,1.674,1.9,2.02,3.059a7.84,7.84,0,0,1,.231,1.53c.144,1.414-.058,1.385.058,2.886.058.693.115,1.01-.087,1.385a1.8,1.8,0,0,1-1.01.722,2.2,2.2,0,0,1-1.616-.058,2.412,2.412,0,0,1-.924-.808,4.2,4.2,0,0,1-.491-1.385,7.935,7.935,0,0,0-.866-1.9,14.3,14.3,0,0,0-1.9-2.54c-1.212-1.472-.981-1.385-2.107-2.771-1.616-2.02-1.789-1.818-2.54-2.973-.4-.606-.26-.52-1.732-3.463-1.212-2.424-1.212-2.309-1.443-2.915-.606-1.674-.664-2.886-1.1-2.915-.231-.029-.4.317-.664.779a8.771,8.771,0,0,1-2.107,2.338c-2.136,2.049-1.934,1.876-3.03,2.828a44.485,44.485,0,0,1-3.838,2.771c-1.7,1.154-2.6,1.7-3.117,2.02C31.318,144.144,28.432,146.453,28.288,146.251Z" transform="translate(-20.133 -72.795)"/>
    <path id="Path_27" data-name="Path 27" class="cls-14" d="M55.54,56.064s-4.82.4-7.013,1.472a.363.363,0,0,1-.375-.058c-2.049-1.7-8.4-6.58-16.768-2.944-1.443-3.636-2.338-9.207-9.437-12.093C23.187,37.939,25.121,31.5,14.5,21.2c6.782,2.193,29.438,16.1,29.438,16.1C44.111,39.7,44.486,46.684,55.54,56.064Z" transform="translate(-10.328 -15.134)"/>
    <path id="Path_28" data-name="Path 28" class="cls-10" d="M209.248,167.182a24.369,24.369,0,0,1-2.6-2.6c-.577-.635.75.837,0,0-.491-.548-.346-.433-.981-1.183a8.853,8.853,0,0,1-1.5-2.107c0-.087-.115-.866.346-1.154s1.1.144,1.212.231c.173.115.317.26.837,1.01.548.837.722,1.212.808,1.183a16.054,16.054,0,0,0-.317-2.078c-.144-.722.289,1.558,0,0-.231-1.212-.462-1.789-.231-2.424.115-.317.548-.4.866-.375a1.148,1.148,0,0,1,.837.519,2.485,2.485,0,0,1,.289,1.068,2.525,2.525,0,0,0,.058.462l.346,1.9c.029.087.029.173.058.26.2.722.491,1.587.606,2.049a4.45,4.45,0,0,0,.808,1.616" transform="translate(-145.248 -112.226)"/>
    <path id="Path_29" data-name="Path 29" class="cls-10" d="M.1,15.692c5.224,1.53,21.761,6.869,36.018,17.692.029,0,.029.029.029.058.115.693.173,1.3-1.154,2.049-.029.029-.058.058-.058.087.4,3.059,2.02,11.111,11.2,13.016a.062.062,0,0,1,.058.058c.491,1.558.722,2.482-.981,3.55a.088.088,0,0,1-.115,0c-1.789-1.674-10.621-5.859-11.2-15.9a.081.081,0,0,0-.144-.058A90.792,90.792,0,0,0,21,50.931a.1.1,0,0,1-.173-.087C22.325,47.439,27.953,37.828,33,35.26a.092.092,0,0,0-.058-.173c-7.562.375-15.008.981-21.559,3.636-.115.058-.173-.115-.087-.173,3.261-1.789,13.3-5.6,20.9-5.31a.1.1,0,0,0,.058-.173c-2.54-1.934-16.8-11-32.209-17.2C-.071,15.836-.013,15.663.1,15.692Z" transform="translate(0 -11.213)"/>
    <path id="Path_30" data-name="Path 30" class="cls-15" d="M225.556,225.234a2.892,2.892,0,0,1-1.5,1.27,3.345,3.345,0,0,1-1.818.173,4.693,4.693,0,0,1-2.8-2.136c-.75-1.068-.52-1.385-1.558-3.521-.577-1.154-.664-1.126-1.154-2.136-.144-.317-1.616-3.377-1.1-3.752.346-.231,1.183,1.039,3.059,2.367,3.232,2.28,4.993,1.616,6.349,3.665a4.8,4.8,0,0,1,.779,3.406A2.446,2.446,0,0,1,225.556,225.234Z" transform="translate(-153.33 -153.076)"/>
    <path id="Path_31" data-name="Path 31" class="cls-10" d="M248.6,165.756a23.773,23.773,0,0,0,.664-3.608c.115-.866-.144,1.126,0,0,.087-.75.058-.577.144-1.53a8.9,8.9,0,0,0,.058-2.6c-.029-.087-.4-.779-.952-.75-.52.029-.837.75-.866.866-.087.173-.115.375-.115,1.3.029.981.087,1.414,0,1.414a14.261,14.261,0,0,1-.924-1.9c-.289-.664.635,1.443,0,0-.519-1.126-.635-1.732-1.183-2.136a.856.856,0,0,0-.924.173,1.176,1.176,0,0,0-.4.895,2.177,2.177,0,0,0,.375,1.039,2.639,2.639,0,0,1,.2.4l.779,1.789.087.26c.26.693.491,1.587.664,2.02a4.309,4.309,0,0,1,.231,1.818" transform="translate(-173.664 -111.55)"/>
    <path id="Path_32" data-name="Path 32" class="cls-16" d="M216.6,218.876c-.462.115-.606,1.212-.606,1.7a1.994,1.994,0,0,0,.289,1.3c.577.808,1.991.981,2.367.52C219.288,221.617,217.412,218.674,216.6,218.876Z" transform="translate(-153.672 -155.751)"/>
    <path id="Path_33" data-name="Path 33" class="cls-17" d="M216.44,183.506a2.725,2.725,0,0,0-.058,1.068c.058.491.144.548.231,1.154a4.083,4.083,0,0,1,.087,1.356,6.365,6.365,0,0,1-.317,1.241,7.219,7.219,0,0,1-.346,1.039c-.317.779-.462.808-.548,1.3a3.053,3.053,0,0,0,0,1.039,3.8,3.8,0,0,0,.519,1.356c.173.317.231.375.693,1.068.4.635.635.924.779,1.212a13.193,13.193,0,0,1,.779,1.76c.577,1.328.52,1.212.635,1.5.433,1.1.664,1.645.664,1.674a4.016,4.016,0,0,0,.491,1.01,1.716,1.716,0,0,0,.52.491,2.024,2.024,0,0,0,1.9.058c.433-.2.4-.433.808-.519a1.813,1.813,0,0,1,1.068.144c.346.173.317.346.664.491a1.507,1.507,0,0,0,1.01.115,1.3,1.3,0,0,0,.837-.491c.173-.26.144-.462.173-1.01,0,0,0-.087.087-1.443a9.733,9.733,0,0,1,.346-2.049,5.824,5.824,0,0,1,.577-1.674c.346-.577.577-.577.924-1.212a4.392,4.392,0,0,0,.491-1.443,5.858,5.858,0,0,0-.115-2.193,7.79,7.79,0,0,0-.346-1.241c-.26-.808-.375-.952-.491-1.472a6.381,6.381,0,0,1-.144-1.356c-.029-.808.087-1.01.115-2.107a3.262,3.262,0,0,0-.115-1.356,1.6,1.6,0,0,0-1.068-.952,1.338,1.338,0,0,0-1.3.231c-.317.375,0,.606-.433,1.068a2.421,2.421,0,0,1-1.472.289c-.375-.029.4.058,0,0a12.315,12.315,0,0,0-2.511.029c-1.068.087-1.414.26-1.76,0-.144-.115-.115-.144-.491-.722s-.577-.866-.866-1.01a1.336,1.336,0,0,0-1.7.577C216.584,182.986,216.469,183.39,216.44,183.506Z" transform="translate(-153.276 -129.415)"/>
    <path id="Path_34" data-name="Path 34" class="cls-18" d="M222.964,215.717a1.786,1.786,0,0,0-1.385.837,1.224,1.224,0,0,0-.029,1.01c.346.635,1.385.548,1.558.548.837-.058,1.9-.606,1.9-1.3a1.233,1.233,0,0,0-.4-.808A1.8,1.8,0,0,0,222.964,215.717Z" transform="translate(-157.549 -153.458)"/>
    <path id="Path_35" data-name="Path 35" class="cls-18" d="M253.737,214.991a.91.91,0,0,0-.4.664c-.058.289-.058.491.346.952.433.52.779.895,1.3.952a1.029,1.029,0,0,0,.664-.115c.519-.346.375-1.27.346-1.356a1.535,1.535,0,0,0-.491-.895A1.643,1.643,0,0,0,253.737,214.991Z" transform="translate(-180.212 -152.877)"/>
  </g>
</svg>
